<svg width="40" height="39" viewBox="0 0 40 39" fill="none" xmlns="http://www.w3.org/2000/svg">
<path d="M26.5 38.3815V15.4042L39.5 12.6185V35.5958L26.5 38.3815Z" fill="#3A3A3A" stroke="white"/>
<path d="M12.5 35.5958V12.6185L25.5 15.4042V38.3815L19.1048 37.0111L12.5 35.5958Z" fill="#3A3A3A" stroke="white"/>
<path d="M13.5 34.6022V11.6285L25.5 14.3978V37.3715L19.6124 36.0128L13.5 34.6022Z" fill="#3A3A3A" stroke="white"/>
<path d="M26.5 37.3715V14.3978L38.5 11.6285V34.6022L26.5 37.3715Z" fill="#3A3A3A" stroke="white"/>
<line x1="15.1085" y1="13.5119" x2="24.1085" y2="15.5119" stroke="white"/>
<line x1="15.1085" y1="16.5119" x2="24.1085" y2="18.5119" stroke="white"/>
<line x1="15.1085" y1="19.5119" x2="24.1085" y2="21.5119" stroke="white"/>
<line x1="15.1085" y1="22.5119" x2="24.1085" y2="24.5119" stroke="white"/>
<line x1="15.1085" y1="25.5119" x2="24.1085" y2="27.5119" stroke="white"/>
<line x1="15.1085" y1="28.5119" x2="24.1085" y2="30.5119" stroke="white"/>
<line x1="15.1085" y1="31.5119" x2="24.1085" y2="33.5119" stroke="white"/>
<line y1="-0.5" x2="9.21954" y2="-0.5" transform="matrix(-0.976187 0.21693 0.21693 0.976187 37 14)" stroke="white"/>
<line y1="-0.5" x2="9.21954" y2="-0.5" transform="matrix(-0.976187 0.21693 0.21693 0.976187 37 17)" stroke="white"/>
<line y1="-0.5" x2="9.21954" y2="-0.5" transform="matrix(-0.976187 0.21693 0.21693 0.976187 37 20)" stroke="white"/>
<line y1="-0.5" x2="9.21954" y2="-0.5" transform="matrix(-0.976187 0.21693 0.21693 0.976187 37 23)" stroke="white"/>
<line y1="-0.5" x2="9.21954" y2="-0.5" transform="matrix(-0.976187 0.21693 0.21693 0.976187 37 26)" stroke="white"/>
<line y1="-0.5" x2="9.21954" y2="-0.5" transform="matrix(-0.976187 0.21693 0.21693 0.976187 37 29)" stroke="white"/>
<line y1="-0.5" x2="9.21954" y2="-0.5" transform="matrix(-0.976187 0.21693 0.21693 0.976187 37 32)" stroke="white"/>
<path d="M8.39474 8.33333V0.5H16.6053V8.33333V8.83333H17.1053H24.5V16.1667H17.1053H16.6053V16.6667V24.5H8.39474V16.6667V16.1667H7.89474H0.5V8.83333H7.89474H8.39474V8.33333Z" fill="#3A3A3A" stroke="white"/>
</svg>
