<svg width="42" height="32" viewBox="0 0 42 32" fill="none" xmlns="http://www.w3.org/2000/svg">
<path d="M30.5082 23.375H31.0082V22.875V22.3832C31.0082 16.8558 26.5274 12.375 21 12.375C15.4726 12.375 10.9918 16.8558 10.9918 22.3832V22.875V23.375H11.4918H30.5082Z" fill="#3A3A3A" stroke="white"/>
<path d="M21.3279 13.375C25.1777 13.375 28.3852 10.5384 28.3852 6.9375C28.3852 3.33661 25.1777 0.5 21.3279 0.5C17.4781 0.5 14.2705 3.33661 14.2705 6.9375C14.2705 10.5384 17.4781 13.375 21.3279 13.375Z" fill="#3A3A3A" stroke="white"/>
<path d="M20.0164 31.5H20.5164V31V30.5082C20.5164 24.9808 16.0356 20.5 10.5082 20.5C4.98082 20.5 0.5 24.9808 0.5 30.5082V31V31.5H1H20.0164Z" fill="#3A3A3A" stroke="white"/>
<path d="M10.8361 21.5C14.6859 21.5 17.8934 18.6634 17.8934 15.0625C17.8934 11.4616 14.6859 8.625 10.8361 8.625C6.98626 8.625 3.77869 11.4616 3.77869 15.0625C3.77869 18.6634 6.98626 21.5 10.8361 21.5Z" fill="#3A3A3A" stroke="white"/>
<path d="M41 31.5H41.5V31V30.5082C41.5 24.9808 37.0192 20.5 31.4918 20.5C25.9644 20.5 21.4836 24.9808 21.4836 30.5082V31V31.5H21.9836H41Z" fill="#3A3A3A" stroke="white"/>
<path d="M31.8197 21.5C35.6695 21.5 38.877 18.6634 38.877 15.0625C38.877 11.4616 35.6695 8.625 31.8197 8.625C27.9699 8.625 24.7623 11.4616 24.7623 15.0625C24.7623 18.6634 27.9699 21.5 31.8197 21.5Z" fill="#3A3A3A" stroke="white"/>
</svg>
