<svg width="37" height="41" viewBox="0 0 37 41" fill="none" xmlns="http://www.w3.org/2000/svg">
<rect x="0.5" y="0.5" width="30" height="39" fill="#3A3A3A" stroke="white"/>
<rect x="2.5" y="2.5" width="26" height="2" fill="white" stroke="white"/>
<line x1="4" y1="8.5" x2="27" y2="8.5" stroke="white"/>
<line x1="4" y1="8.5" x2="27" y2="8.5" stroke="white"/>
<line x1="4" y1="8.5" x2="27" y2="8.5" stroke="white"/>
<line x1="4" y1="11.5" x2="27" y2="11.5" stroke="white"/>
<line x1="4" y1="14.5" x2="27" y2="14.5" stroke="white"/>
<line x1="4" y1="17.5" x2="27" y2="17.5" stroke="white"/>
<line x1="4" y1="20.5" x2="27" y2="20.5" stroke="white"/>
<line x1="4" y1="23.5" x2="27" y2="23.5" stroke="white"/>
<line x1="4" y1="26.5" x2="27" y2="26.5" stroke="white"/>
<line x1="4" y1="29.5" x2="27" y2="29.5" stroke="white"/>
<line x1="4" y1="32.5" x2="27" y2="32.5" stroke="white"/>
<path d="M33.5 0.5H36.5V33.93L35 39.18L33.5 33.93V0.5Z" fill="#3A3A3A" stroke="white"/>
<path d="M33 33.5H34L35 32L36 33.5H37" stroke="white"/>
</svg>
