<svg width="44" height="38" viewBox="0 0 44 38" fill="none" xmlns="http://www.w3.org/2000/svg">
<path d="M31.0164 27.4652H31.5164V26.9652V26.4385C31.5164 20.9111 27.0356 16.4303 21.5082 16.4303C15.9808 16.4303 11.5 20.9111 11.5 26.4385V26.9652V27.4652H12H31.0164Z" fill="#3A3A3A" stroke="white"/>
<path d="M21.5574 17.4303C25.4089 17.4303 28.6148 14.5829 28.6148 10.9721C28.6148 7.36137 25.4089 4.51395 21.5574 4.51395C17.7059 4.51395 14.5 7.36137 14.5 10.9721C14.5 14.5829 17.7059 17.4303 21.5574 17.4303Z" fill="#3A3A3A" stroke="white"/>
<path d="M28 8.52439H28.5V8.02439V7.5C28.5 3.63401 25.366 0.5 21.5 0.5C17.634 0.5 14.5 3.63401 14.5 7.5V8.02439V8.52439H15H28Z" fill="#3A3A3A" stroke="white"/>
<line x1="21.5" y1="2.00348" x2="21.5" y2="7.0209" stroke="white"/>
<line x1="18.5" y1="4.01047" x2="18.5" y2="7.02092" stroke="white"/>
<line x1="24.5" y1="4.01047" x2="24.5" y2="7.02092" stroke="white"/>
<path d="M20.0164 37.5H20.5164V37V36.4733C20.5164 30.946 16.0356 26.4651 10.5082 26.4651C4.98082 26.4651 0.5 30.946 0.5 36.4733V37V37.5H1H20.0164Z" fill="#3A3A3A" stroke="white"/>
<path d="M10.5574 27.4651C14.4089 27.4651 17.6148 24.6177 17.6148 21.007C17.6148 17.3962 14.4089 14.5488 10.5574 14.5488C6.70586 14.5488 3.5 17.3962 3.5 21.007C3.5 24.6177 6.70586 27.4651 10.5574 27.4651Z" fill="#3A3A3A" stroke="white"/>
<path d="M17 18.5592H17.5V18.0592V17.5349C17.5 13.6689 14.366 10.5349 10.5 10.5349C6.63401 10.5349 3.5 13.6689 3.5 17.5349V18.0592V18.5592H4H17Z" fill="#3A3A3A" stroke="white"/>
<line x1="10.5" y1="12.0383" x2="10.5" y2="17.0558" stroke="white"/>
<line x1="7.5" y1="14.0453" x2="7.5" y2="17.0557" stroke="white"/>
<line x1="13.5" y1="14.0453" x2="13.5" y2="17.0557" stroke="white"/>
<path d="M42.0164 37.5H42.5164V37V36.4733C42.5164 30.946 38.0356 26.4651 32.5082 26.4651C26.9808 26.4651 22.5 30.946 22.5 36.4733V37V37.5H23H42.0164Z" fill="#3A3A3A" stroke="white"/>
<path d="M32.5574 27.4651C36.4089 27.4651 39.6148 24.6177 39.6148 21.007C39.6148 17.3962 36.4089 14.5488 32.5574 14.5488C28.7059 14.5488 25.5 17.3962 25.5 21.007C25.5 24.6177 28.7059 27.4651 32.5574 27.4651Z" fill="#3A3A3A" stroke="white"/>
<path d="M39 18.5592H39.5V18.0592V17.5349C39.5 13.6689 36.366 10.5349 32.5 10.5349C28.634 10.5349 25.5 13.6689 25.5 17.5349V18.0592V18.5592H26H39Z" fill="#3A3A3A" stroke="white"/>
<line x1="32.5" y1="12.0383" x2="32.5" y2="17.0558" stroke="white"/>
<line x1="29.5" y1="14.0453" x2="29.5" y2="17.0557" stroke="white"/>
<line x1="35.5" y1="14.0453" x2="35.5" y2="17.0557" stroke="white"/>
</svg>
